<svg version="1.1" id="Layer_1" xmlns="http://www.w3.org/2000/svg" x="0px" y="0px" viewBox="0 0 56 56" style="enable-background:new 0 0 56 56;" xml:space="preserve">
<style type="text/css">.st0{fill:#FFFFFF;}</style>
<g>
	<path class="st0" d="M16.1724758,24.1696568c0,3.6443424,0,16.5682316,0,16.5682316
		c0,1.1946335,0.9917889,1.441658,2.2141132,1.441658s2.2141113-0.2470245,2.2141113-1.441658c0,0,0-10.747612,0-13.1885166
		C20.6007004,22.9679794,16.1724758,20.6772842,16.1724758,24.1696568z M28,0c-5.0179386,0-9.9373016,1.3659681-14.2229671,3.950042
		c-0.7369661,0.4459345-0.5647526,1.1570828-0.1188183,1.8963954c0.4435873,0.7369657,0.9895639,1.2227998,1.7335711,0.779212
		C19.18927,4.3349538,23.5500412,3.1262364,28,3.1262364c13.5845757,0,24.5141907,11.157753,24.5141907,24.873764
		S41.5845757,52.873764,28,52.873764S3.4858081,41.716011,3.4858081,28c0-5.8041916,3.111892-10.6741619,7.7517443-12.0871754
		c3.861474-1.1759672,7.5142937,0.0128574,10.2139454,3.3798618c3.7749424,4.7081051,12.2246151,20.4867554,14.2167301,22.4788704
		c0.8309135,0.8309135,4.0223007,0.3856926,4.0223007-1.1137581V15.2621126c0-1.1946354-0.9693222-1.4419537-2.1639557-1.4419537
		c-1.1946373,0-2.1639595,0.2473183-2.1639595,1.4419537v17.7528839c0,0-5.1989441-9.2674503-9.0462666-14.8438148
		c-1.3460655-1.9510059-3.0749855-4.278862-6.0134544-5.6731243c-3.0430069-1.4438648-6.9822607-1.3047915-10.2458935-0.1175032
		C3.8551102,14.6367598,0.1192213,20.5646267,0.1192213,28c0,15.4387245,12.5734854,28,27.8807793,28
		s27.8807793-12.5612755,27.8807793-28S43.3072929,0,28,0z"/>
</g>
</svg>
